<svg xmlns="http://www.w3.org/2000/svg" viewBox="0 0 32 32"><rect width="32" height="32" rx="6" fill="#0a2466"/><path d="M76.299560546875 0V492.500244140625H177.201171875V435.00048828125H193.101318359375Q206.80126953125 460.700439453125 237.8511962890625 480.9503173828125Q268.901123046875 501.2001953125 322.100830078125 501.2001953125Q377.20068359375 501.2001953125 410.77557373046875 478.42535400390625Q444.3504638671875 455.6505126953125 461.00048828125 420.900634765625H476.900634765625Q493.900634765625 455.00048828125 526.6505126953125 478.100341796875Q559.400390625 501.2001953125 619.2001953125 501.2001953125Q666.60009765625 501.2001953125 703.9251098632812 481.3502197265625Q741.2501220703125 461.500244140625 763.2251586914062 423.0501708984375Q785.2001953125 384.60009765625 785.2001953125 328.4498291015625V0H682.298583984375V320.499755859375Q682.298583984375 365.3494873046875 657.6238403320312 389.69921875Q632.9490966796875 414.0489501953125 588.299560546875 414.0489501953125Q540.0499267578125 414.0489501953125 511.12530517578125 383.0491943359375Q482.20068359375 352.0494384765625 482.20068359375 293.699951171875V0H379.299072265625V320.499755859375Q379.299072265625 365.3494873046875 354.62432861328125 389.69921875Q329.9495849609375 414.0489501953125 285.300048828125 414.0489501953125Q237.0504150390625 414.0489501953125 208.12579345703125 383.0491943359375Q179.201171875 352.0494384765625 179.201171875 293.699951171875V0Z" transform="translate(2.2 24) scale(0.032 -0.032)" fill="#ece8de"/></svg>
